<?xml version="1.0" encoding="utf-8"?>
<!-- Generator: Adobe Illustrator 22.0.1, SVG Export Plug-In . SVG Version: 6.00 Build 0)  -->
<svg version="1.1" id="Layer_1" xmlns="http://www.w3.org/2000/svg" xmlns:xlink="http://www.w3.org/1999/xlink" x="0px" y="0px"
	 viewBox="0 0 250 125" style="enable-background:new 0 0 250 125;" xml:space="preserve">
<style type="text/css">
	.st0{fill:#010101;}
	.st1{fill:url(#SVGID_1_);}
	.st2{fill:url(#SVGID_2_);}
	.st3{fill:url(#SVGID_3_);}
	.st4{fill:url(#SVGID_4_);}
	.st5{fill:url(#SVGID_5_);}
	.st6{fill:url(#SVGID_6_);}
	.st7{fill:url(#SVGID_7_);}
	.st8{fill:url(#SVGID_8_);}
	.st9{fill:#2E2E2C;}
	.st10{fill:#FFFFFF;}
	.st11{fill:url(#SVGID_9_);}
	.st12{fill:#303030;}
	.st13{fill:url(#SVGID_10_);}
	.st14{fill:url(#SVGID_11_);}
	.st15{fill:url(#SVGID_12_);}
	.st16{fill:#FAF8F6;}
	.st17{fill:#F7F3EF;}
	.st18{fill:#F4EFEA;}
	.st19{fill:#F1EBE5;}
	.st20{fill:#EEE8DF;}
	.st21{fill:#ECE4DA;}
	.st22{fill:#E9E0D5;}
	.st23{fill:#E7DDD0;}
	.st24{fill:#E4D9CC;}
	.st25{fill:#E2D6C7;}
	.st26{fill:#E0D2C2;}
	.st27{fill:#FABBAC;}
	.st28{fill:url(#SVGID_13_);}
	.st29{fill:url(#SVGID_14_);}
	.st30{fill:#A15825;}
	.st31{fill:url(#SVGID_15_);}
	.st32{fill:#C9C9C9;}
	.st33{fill:url(#SVGID_16_);}
	.st34{fill:url(#SVGID_17_);}
	.st35{fill:url(#SVGID_18_);}
	.st36{fill:url(#SVGID_19_);}
	.st37{fill:#484848;}
	.st38{fill:url(#SVGID_20_);}
	.st39{fill:url(#SVGID_21_);}
	.st40{fill:url(#SVGID_22_);}
	.st41{fill:url(#SVGID_23_);}
</style>
<g>
	<g>
		<path class="st0" d="M119.5,28c1-0.9,1.9-1.6,2.9-2.2c0.5-0.3,1.1-0.6,1.7-0.7c0.3-0.1,0.6-0.1,0.9-0.2c0.3,0,0.6,0,0.9,0h3.3
			c1.1,0,2.2,0,3.3,0c4.4,0,8.9-0.2,13.3-0.2c2.2,0,4.4,0,6.7,0h6.7c4.4,0,8.9,0.1,13.3,0.1h0.1h0.1c0.2,0.1,0.3,0.1,0.4,0.1
			c0.1,0,0.2,0.1,0.3,0.2c0.2,0.1,0.4,0.2,0.6,0.3c0.4,0.2,0.7,0.5,1.1,0.7c0.7,0.5,1.4,1,2,1.6l-1.8,1.6c-0.4-0.7-0.9-1.3-1.4-2
			c-0.2-0.3-0.5-0.6-0.8-0.9c-0.1-0.2-0.3-0.3-0.4-0.4c-0.1-0.1-0.1-0.1-0.2-0.2c-0.1-0.1-0.2-0.1-0.2-0.2h0.2
			c-4.4,0.1-8.9,0.1-13.3,0.1h-6.7c-2.2,0-4.4,0-6.7,0c-4.4,0-8.9-0.1-13.3-0.2c-1.1,0-2.2,0-3.3,0h-3.3c-1,0-1.9,0.4-2.8,1
			c-0.8,0.6-1.5,1.5-1.9,2.4L119.5,28z"/>
		
			<linearGradient id="SVGID_1_" gradientUnits="userSpaceOnUse" x1="123.25" y1="98.7249" x2="123.25" y2="49.6072" gradientTransform="matrix(1 0 0 -1 0 126)">
			<stop  offset="0" style="stop-color:#48A3DA"/>
			<stop  offset="0.3048" style="stop-color:#4192CF"/>
			<stop  offset="1" style="stop-color:#3471B8"/>
		</linearGradient>
		<path class="st1" d="M123,27.6c11.3,0,38.9,0,52.2,0c2.7,0,7,0.9,9.4,2.2c5.5,3,14.1,8.7,14.1,15c0,7.8,0,18.1,0,21
			c0,0.5,1.4,5.9,1.4,5.9s0,2,0,4.4s-2.5,4.4-5.5,4.4H51.9c-3.1,0-5.5-2.5-5.5-5.5V63.6c0-2.7,0.9-7,3.4-8.3
			c4.5-2.4,15-5.6,39.6-7.8C89.3,47.4,109.2,27.6,123,27.6z"/>
		
			<linearGradient id="SVGID_2_" gradientUnits="userSpaceOnUse" x1="57.2" y1="53.8838" x2="57.2" y2="45.5069" gradientTransform="matrix(1 0 0 -1 0 126)">
			<stop  offset="0" style="stop-color:#605B5F"/>
			<stop  offset="0.2754" style="stop-color:#272629"/>
			<stop  offset="0.4267" style="stop-color:#28272B"/>
			<stop  offset="0.5415" style="stop-color:#2D2C2F"/>
			<stop  offset="0.6444" style="stop-color:#353437"/>
			<stop  offset="0.7396" style="stop-color:#403E41"/>
			<stop  offset="0.8093" style="stop-color:#4B494C"/>
		</linearGradient>
		<path class="st2" d="M46.4,72c0,0,0,1.9,0,4.2s2.5,4.2,5.5,4.2H68V72H46.4z"/>
		<g>
			
				<image style="overflow:visible;enable-background:new    ;" width="21" height="121" xlink:href="86AE5D4F.png"  transform="matrix(0.1943 0 0 0.1943 131.287 49.1337)">
			</image>
		</g>
		<g>
			
				<image style="overflow:visible;enable-background:new    ;" width="25" height="117" xlink:href="86AE5D4D.png"  transform="matrix(0.2208 0 0 0.2208 93.367 47.6112)">
			</image>
		</g>
		<g>
			
				<image style="overflow:visible;enable-background:new    ;" width="58" height="121" xlink:href="86AE5D53.png"  transform="matrix(0.2234 0 0 0.2234 151.927 47.1294)">
			</image>
		</g>
		
			<linearGradient id="SVGID_3_" gradientUnits="userSpaceOnUse" x1="121.25" y1="51.9922" x2="121.25" y2="45.5225" gradientTransform="matrix(1 0 0 -1 0 126)">
			<stop  offset="0" style="stop-color:#605B5F"/>
			<stop  offset="0.2754" style="stop-color:#272629"/>
			<stop  offset="0.4267" style="stop-color:#28272B"/>
			<stop  offset="0.5415" style="stop-color:#2D2C2F"/>
			<stop  offset="0.6444" style="stop-color:#353437"/>
			<stop  offset="0.7396" style="stop-color:#403E41"/>
			<stop  offset="0.8093" style="stop-color:#4B494C"/>
		</linearGradient>
		<rect x="83.8" y="73.8" class="st3" width="74.9" height="6.6"/>
		<g>
			<path class="st0" d="M77.2,62c-7.4,0-13.7,4.4-16.7,10.6l-1.5,5c-0.1,0.9-0.2,1.8-0.2,2.7c2.1,0,3.5,0,3.5,0h33.3
				C95.6,70.3,87.4,62,77.2,62z"/>
			
				<radialGradient id="SVGID_4_" cx="77.2" cy="45.6" r="15.7685" gradientTransform="matrix(1 0 0 -1 0 126)" gradientUnits="userSpaceOnUse">
				<stop  offset="0.8558" style="stop-color:#303030"/>
				<stop  offset="0.8635" style="stop-color:#333332"/>
				<stop  offset="0.9211" style="stop-color:#434243"/>
				<stop  offset="0.9687" style="stop-color:#4D4B4E"/>
				<stop  offset="1" style="stop-color:#514F52"/>
			</radialGradient>
			<path class="st4" d="M93,80.4c0,8.7-7.1,15.8-15.8,15.8s-15.8-7.1-15.8-15.8s7.1-15.8,15.8-15.8S93,71.7,93,80.4z"/>
			
				<radialGradient id="SVGID_5_" cx="77.2" cy="45.6" r="10.2715" gradientTransform="matrix(1 0 0 -1 0 126)" gradientUnits="userSpaceOnUse">
				<stop  offset="0" style="stop-color:#FFFFFF"/>
				<stop  offset="3.103287e-02" style="stop-color:#FAFAFA"/>
				<stop  offset="0.1737" style="stop-color:#F1F0F0"/>
				<stop  offset="0.6285" style="stop-color:#F1F0F0"/>
				<stop  offset="0.7034" style="stop-color:#F1F0F0"/>
				<stop  offset="0.843" style="stop-color:#EFEEEE"/>
				<stop  offset="0.8933" style="stop-color:#E8E7E7"/>
				<stop  offset="0.9292" style="stop-color:#DDDCDB"/>
				<stop  offset="0.9581" style="stop-color:#CDCCCC"/>
				<stop  offset="0.9827" style="stop-color:#BAB9B9"/>
				<stop  offset="1" style="stop-color:#A9A8A8"/>
			</radialGradient>
			<path class="st5" d="M77.2,90.7c-5.7,0-10.3-4.6-10.3-10.3c0-5.7,4.6-10.3,10.3-10.3c5.7,0,10.3,4.6,10.3,10.3
				S82.9,90.7,77.2,90.7z"/>
			<g>
				<path class="st0" d="M73.1,72.4l2.8,4.9c0.6,1.1,1.7,1.1,2.3,0l2.8-4.9c0.1-0.1-1.7-1.2-4-1.2S73.1,72.3,73.1,72.4z"/>
				<path class="st0" d="M68.3,82.1l5.5-1.3c1.2-0.3,1.5-1.3,0.7-2.2l-3.9-4.2c0-0.1-1.6,1.3-2.3,3.5C67.7,80.1,68.2,82.1,68.3,82.1
					z"/>
				<path class="st0" d="M76.1,89.6l0.4-5.7c0.1-1.3-0.8-1.9-1.9-1.3l-5.1,2.5c-0.1,0,0.8,1.9,2.7,3.2C74,89.6,76.1,89.7,76.1,89.6z
					"/>
				<path class="st0" d="M85.6,84.3l-5.3-2c-1.2-0.5-2,0.2-1.8,1.5l0.9,5.6c0,0.1,2.1-0.2,3.8-1.6C85,86.2,85.7,84.3,85.6,84.3z"/>
				<path class="st0" d="M83.3,73.9l-3.5,4.5c-0.8,1-0.4,2,0.9,2.1l5.6,0.8c0.1,0,0.4-2-0.4-4.1C85,75,83.3,73.8,83.3,73.9z"/>
			</g>
		</g>
		
			<linearGradient id="SVGID_6_" gradientUnits="userSpaceOnUse" x1="191.05" y1="56.6705" x2="191.05" y2="45.3168" gradientTransform="matrix(1 0 0 -1 0 126)">
			<stop  offset="0" style="stop-color:#605B5F"/>
			<stop  offset="0.2754" style="stop-color:#272629"/>
			<stop  offset="0.4267" style="stop-color:#28272B"/>
			<stop  offset="0.5415" style="stop-color:#2D2C2F"/>
			<stop  offset="0.6444" style="stop-color:#353437"/>
			<stop  offset="0.7396" style="stop-color:#403E41"/>
			<stop  offset="0.8093" style="stop-color:#4B494C"/>
		</linearGradient>
		<path class="st6" d="M182,80.4h12.6c3,0,5.5-2,5.5-4.4v-4.4c0,0-0.6-2.4-1.1-4.2l-4.7,4.5l-9.4,1.8L182,80.4z"/>
		<g>
			<path class="st0" d="M170.7,62c-7.4,0-13.7,4.4-16.7,10.6l-1.5,5c-0.1,0.9-0.2,1.8-0.2,2.7c2.1,0,3.5,0,3.5,0h33.3
				C189.1,70.3,180.8,62,170.7,62z"/>
			
				<radialGradient id="SVGID_7_" cx="170.6678" cy="45.6" r="15.7661" gradientTransform="matrix(1 0 0 -1 0 126)" gradientUnits="userSpaceOnUse">
				<stop  offset="0.8558" style="stop-color:#303030"/>
				<stop  offset="0.8635" style="stop-color:#333332"/>
				<stop  offset="0.9211" style="stop-color:#434243"/>
				<stop  offset="0.9687" style="stop-color:#4D4B4E"/>
				<stop  offset="1" style="stop-color:#514F52"/>
			</radialGradient>
			<path class="st7" d="M186.4,80.4c0,8.7-7.1,15.8-15.8,15.8s-15.8-7.1-15.8-15.8s7.1-15.8,15.8-15.8
				C179.4,64.6,186.4,71.7,186.4,80.4z"/>
			
				<radialGradient id="SVGID_8_" cx="170.6673" cy="45.6" r="10.2685" gradientTransform="matrix(1 0 0 -1 0 126)" gradientUnits="userSpaceOnUse">
				<stop  offset="0" style="stop-color:#FFFFFF"/>
				<stop  offset="3.103287e-02" style="stop-color:#FAFAFA"/>
				<stop  offset="0.1737" style="stop-color:#F1F0F0"/>
				<stop  offset="0.6285" style="stop-color:#F1F0F0"/>
				<stop  offset="0.7034" style="stop-color:#F1F0F0"/>
				<stop  offset="0.843" style="stop-color:#EFEEEE"/>
				<stop  offset="0.8933" style="stop-color:#E8E7E7"/>
				<stop  offset="0.9292" style="stop-color:#DDDCDB"/>
				<stop  offset="0.9581" style="stop-color:#CDCCCC"/>
				<stop  offset="0.9827" style="stop-color:#BAB9B9"/>
				<stop  offset="1" style="stop-color:#A9A8A8"/>
			</radialGradient>
			<path class="st8" d="M170.7,90.7c-5.7,0-10.3-4.6-10.3-10.3c0-5.7,4.6-10.3,10.3-10.3S181,74.7,181,80.4
				C180.9,86.1,176.3,90.7,170.7,90.7z"/>
			<g>
				<path class="st0" d="M166.6,72.4l2.8,4.9c0.6,1.1,1.7,1.1,2.3,0l2.8-4.9c0.1-0.1-1.7-1.2-4-1.2
					C168.3,71.3,166.5,72.3,166.6,72.4z"/>
				<path class="st0" d="M161.8,82.1l5.5-1.3c1.2-0.3,1.5-1.3,0.7-2.2l-3.9-4.1c0-0.1-1.6,1.3-2.3,3.5
					C161.2,80.1,161.7,82.1,161.8,82.1z"/>
				<path class="st0" d="M169.6,89.5l0.4-5.6c0.1-1.3-0.8-1.8-1.9-1.3l-5.1,2.5c-0.1,0,0.8,1.9,2.7,3.2
					C167.5,89.5,169.6,89.6,169.6,89.5z"/>
				<path class="st0" d="M179,84.2l-5.3-2c-1.2-0.5-2,0.2-1.8,1.5l0.9,5.6c0,0.1,2.1-0.2,3.8-1.6C178.4,86.2,179.1,84.3,179,84.2z"
					/>
				<path class="st0" d="M176.7,73.9l-3.5,4.5c-0.8,1-0.4,2,0.9,2.1l5.6,0.8c0.1,0,0.4-2-0.4-4.1C178.4,75,176.7,73.8,176.7,73.9z"
					/>
			</g>
		</g>
		<rect x="45.9" y="65.5" class="st9" width="0.5" height="5"/>
		<rect x="45.8" y="66.1" class="st10" width="0.1" height="4.1"/>
		
			<linearGradient id="SVGID_9_" gradientUnits="userSpaceOnUse" x1="89.5" y1="87.2" x2="113.0332" y2="87.2" gradientTransform="matrix(1 0 0 -1 0 126)">
			<stop  offset="0" style="stop-color:#605B5F"/>
			<stop  offset="0.2754" style="stop-color:#272629"/>
			<stop  offset="0.4267" style="stop-color:#28272B"/>
			<stop  offset="0.5415" style="stop-color:#2D2C2F"/>
			<stop  offset="0.6444" style="stop-color:#353437"/>
			<stop  offset="0.7396" style="stop-color:#403E41"/>
			<stop  offset="0.8093" style="stop-color:#4B494C"/>
		</linearGradient>
		<path class="st11" d="M93.9,45.5c7.1-5.9,10.7-7.9,16.7-12.4c2.7-2,3-2.3,1.8-2.7C101.5,35.6,90.8,46,89.5,47.2
			C91.9,46.9,92.9,46.3,93.9,45.5z"/>
		<path class="st12" d="M179.2,30.5H164h-24.3H139h-20.6L98,47.2h38.8h25h1.1c4.8,0,23.6,0,28.2,0C193.4,42.7,179.2,30.5,179.2,30.5
			z"/>
		
			<linearGradient id="SVGID_10_" gradientUnits="userSpaceOnUse" x1="185.0643" y1="87.1" x2="198.7037" y2="87.1" gradientTransform="matrix(1 0 0 -1 0 126)">
			<stop  offset="0" style="stop-color:#605B5F"/>
			<stop  offset="0.2754" style="stop-color:#272629"/>
			<stop  offset="0.4267" style="stop-color:#28272B"/>
			<stop  offset="0.5415" style="stop-color:#2D2C2F"/>
			<stop  offset="0.6444" style="stop-color:#353437"/>
			<stop  offset="0.7396" style="stop-color:#403E41"/>
			<stop  offset="0.8093" style="stop-color:#4B494C"/>
		</linearGradient>
		<path class="st13" d="M185.4,30.2c-0.4,0.4-0.5,1.1-0.1,1.9c1.1,2.1,8.5,6.7,13.4,15.5c0-1,0-2,0-2.9
			C198.7,38.7,190.9,33.3,185.4,30.2z"/>
		
			<linearGradient id="SVGID_11_" gradientUnits="userSpaceOnUse" x1="194.2828" y1="68.6167" x2="198.7037" y2="68.6167" gradientTransform="matrix(1 0 0 -1 0 126)">
			<stop  offset="0" style="stop-color:#DB2E27"/>
			<stop  offset="1" style="stop-color:#F26A65"/>
		</linearGradient>
		<path class="st14" d="M194.3,54.9c0,1.9,2.2,4.7,4.4,6.3c0-2.1,0-4.7,0-7.5C197,53.5,194.3,53.3,194.3,54.9z"/>
		<g>
			
				<linearGradient id="SVGID_12_" gradientUnits="userSpaceOnUse" x1="48.5" y1="65.4" x2="60.5686" y2="65.4" gradientTransform="matrix(1 0 0 -1 0 126)">
				<stop  offset="0" style="stop-color:#FFFFFF"/>
				<stop  offset="0.1611" style="stop-color:#B3AFAF"/>
				<stop  offset="0.3578" style="stop-color:#787473"/>
				<stop  offset="0.5449" style="stop-color:#524F4E"/>
				<stop  offset="0.7175" style="stop-color:#3B3A39"/>
				<stop  offset="0.8703" style="stop-color:#2E2D2D"/>
				<stop  offset="0.9873" style="stop-color:#292929"/>
			</linearGradient>
			<path class="st15" d="M57.1,56.5h-6.6c-1.1,0-2,1.8-2,4.1s0.9,4.1,2,4.1c0.2,0,0.3,0,0.4-0.1c1.6-0.4,7-2,9-4.7
				C62.3,56.6,57.1,56.5,57.1,56.5z"/>
			<path class="st10" d="M50.5,64.2c-0.6,0-1.4-1.4-1.4-3.6c0-2.2,0.9-3.6,1.4-3.6h6.6c0.9,0,2.5,0.4,2.9,1.1c0.2,0.4-0.1,1-0.4,1.5
				c-1.9,2.6-7.2,4.1-8.7,4.5C50.6,64.2,50.6,64.2,50.5,64.2z"/>
			<g>
				<path class="st10" d="M54.9,61.5c0.4,0.1,1.5-0.4,1.1-1.2s0.2-1.6,0.3-2s-0.6-0.8-1.5-0.4C54.1,58.3,51.9,60.8,54.9,61.5z"/>
				<path class="st16" d="M54.9,61.3c0.4,0.1,1.4-0.3,1-1.1c-0.4-0.7,0.2-1.5,0.3-1.8c0.1-0.4-0.6-0.8-1.4-0.4
					C54.1,58.4,52.1,60.7,54.9,61.3z"/>
				<path class="st17" d="M55,61.2c0.4,0.1,1.3-0.3,1-1s0.2-1.4,0.3-1.7s-0.5-0.7-1.3-0.3C54.2,58.5,52.4,60.6,55,61.2z"/>
				<path class="st18" d="M55,61.1c0.3,0.1,1.2-0.3,0.9-0.9c-0.3-0.6,0.1-1.2,0.2-1.5c0.1-0.3-0.5-0.6-1.1-0.3
					C54.3,58.6,52.6,60.5,55,61.1z"/>
				<path class="st19" d="M55,60.9c0.3,0.1,1.1-0.3,0.8-0.8c-0.3-0.6,0.1-1.1,0.2-1.4c0.1-0.3-0.4-0.6-1-0.3S52.8,60.5,55,60.9z"/>
				<path class="st20" d="M55,60.8c0.3,0.1,1-0.2,0.7-0.7s0.1-1,0.2-1.3c0.1-0.2-0.4-0.5-0.9-0.3C54.5,58.8,53.1,60.4,55,60.8z"/>
				<path class="st21" d="M55,60.7c0.2,0.1,0.8-0.2,0.6-0.6c-0.2-0.5,0.1-0.9,0.2-1.1c0.1-0.2-0.4-0.5-0.8-0.2
					C54.5,58.9,53.3,60.3,55,60.7z"/>
				<path class="st22" d="M55,60.5c0.2,0,0.7-0.2,0.5-0.6c-0.2-0.4,0.1-0.8,0.2-1c0.1-0.2-0.3-0.4-0.7-0.2
					C54.6,59,53.6,60.2,55,60.5z"/>
				<path class="st23" d="M55.1,60.4c0.2,0,0.6-0.1,0.5-0.5c-0.2-0.3,0.1-0.7,0.1-0.8c0.1-0.2-0.3-0.3-0.6-0.2
					C54.7,59.1,53.8,60.1,55.1,60.4z"/>
				<path class="st24" d="M55.1,60.3c0.1,0,0.5-0.1,0.4-0.4c-0.1-0.3,0.1-0.5,0.1-0.7c0-0.1-0.2-0.3-0.5-0.1
					C54.8,59.2,54,60.1,55.1,60.3z"/>
				<path class="st25" d="M55.1,60.1c0.1,0,0.4-0.1,0.3-0.3c-0.1-0.2,0-0.4,0.1-0.5c0-0.1-0.2-0.2-0.4-0.1
					C54.9,59.3,54.3,60,55.1,60.1z"/>
				<path class="st26" d="M55.1,60c0.1,0,0.3-0.1,0.2-0.2c-0.1-0.2,0-0.3,0.1-0.4c0-0.1-0.1-0.2-0.3-0.1
					C54.9,59.4,54.5,59.9,55.1,60z"/>
			</g>
			<g>
				<path class="st10" d="M49.4,60.3c0,1.5,1,2.7,2.3,2.7c1.2,0,2.3-1.2,2.3-2.7s-1-2.7-2.3-2.7S49.4,58.8,49.4,60.3z"/>
				<path class="st16" d="M49.5,60.3c0,1.4,1,2.5,2.1,2.5c1.2,0,2.1-1.1,2.1-2.5s-1-2.5-2.1-2.5C50.4,57.7,49.5,58.9,49.5,60.3z"/>
				<path class="st17" d="M49.6,60.3c0,1.3,0.9,2.4,2,2.4s2-1.1,2-2.4c0-1.3-0.9-2.4-2-2.4C50.5,57.9,49.6,58.9,49.6,60.3z"/>
				<path class="st18" d="M49.7,60.3c0,1.2,0.8,2.2,1.9,2.2c1,0,1.9-1,1.9-2.2s-0.8-2.2-1.9-2.2C50.6,58,49.7,59,49.7,60.3z"/>
				<path class="st19" d="M49.9,60.3c0,1.1,0.8,2.1,1.7,2.1c1,0,1.7-0.9,1.7-2.1c0-1.1-0.8-2.1-1.7-2.1S49.9,59.1,49.9,60.3z"/>
				<path class="st20" d="M50,60.3c0,1.1,0.7,1.9,1.6,1.9c0.9,0,1.6-0.9,1.6-1.9c0-1.1-0.7-1.9-1.6-1.9C50.7,58.3,50,59.2,50,60.3z"
					/>
				<path class="st21" d="M50.1,60.3c0,1,0.7,1.8,1.5,1.8s1.5-0.8,1.5-1.8s-0.7-1.8-1.5-1.8S50.1,59.3,50.1,60.3z"/>
				<path class="st22" d="M50.3,60.3c0,0.9,0.6,1.6,1.4,1.6c0.8,0,1.4-0.7,1.4-1.6c0-0.9-0.6-1.6-1.4-1.6
					C50.9,58.6,50.3,59.4,50.3,60.3z"/>
				<path class="st23" d="M50.4,60.3c0,0.8,0.6,1.5,1.2,1.5c0.7,0,1.2-0.7,1.2-1.5s-0.6-1.5-1.2-1.5C50.9,58.8,50.4,59.4,50.4,60.3z
					"/>
				<path class="st24" d="M50.5,60.3c0,0.7,0.5,1.3,1.1,1.3s1.1-0.6,1.1-1.3S52.2,59,51.6,59C51,58.9,50.5,59.5,50.5,60.3z"/>
				<path class="st25" d="M50.6,60.3c0,0.6,0.4,1.2,1,1.2c0.5,0,1-0.5,1-1.2c0-0.6-0.4-1.2-1-1.2C51.1,59.1,50.6,59.6,50.6,60.3z"/>
				<path class="st26" d="M50.8,60.3c0,0.6,0.4,1,0.9,1s0.9-0.5,0.9-1c0-0.6-0.4-1-0.9-1S50.8,59.7,50.8,60.3z"/>
			</g>
			<path class="st27" d="M57.5,58.5c0.1-0.2,1.3-1.5,1.3,0.1c0,1.5-1.3,2.5-2,2.1C56.1,60.2,57.2,59.1,57.5,58.5z"/>
		</g>
		
			<linearGradient id="SVGID_13_" gradientUnits="userSpaceOnUse" x1="197.5543" y1="69.1" x2="198.7037" y2="69.1" gradientTransform="matrix(1 0 0 -1 0 126)">
			<stop  offset="0" style="stop-color:#010101"/>
			<stop  offset="0.107" style="stop-color:#080606"/>
			<stop  offset="0.2388" style="stop-color:#1A1313"/>
			<stop  offset="0.3837" style="stop-color:#302121"/>
			<stop  offset="0.5381" style="stop-color:#4C302F"/>
			<stop  offset="0.6998" style="stop-color:#754240"/>
			<stop  offset="0.8652" style="stop-color:#AF5653"/>
			<stop  offset="1" style="stop-color:#F26A65"/>
		</linearGradient>
		<path class="st28" d="M197.6,56.9c0,1.2,0.5,2.1,1.1,2.1c0-1.3,0-2.7,0-4.2C198.1,54.8,197.6,55.7,197.6,56.9z"/>
		<rect x="152.8" y="25.4" class="st0" width="5.5" height="2.2"/>
		
			<linearGradient id="SVGID_14_" gradientUnits="userSpaceOnUse" x1="198.7" y1="72" x2="209.2542" y2="72" gradientTransform="matrix(1 0 0 -1 0 126)">
			<stop  offset="0" style="stop-color:#605B5F"/>
			<stop  offset="0.411" style="stop-color:#010101"/>
			<stop  offset="0.4964" style="stop-color:#060707"/>
			<stop  offset="0.6069" style="stop-color:#141515"/>
			<stop  offset="0.7312" style="stop-color:#242425"/>
			<stop  offset="0.8656" style="stop-color:#363537"/>
			<stop  offset="1" style="stop-color:#4B494C"/>
		</linearGradient>
		<path class="st29" d="M201.7,38.4h4.5c1.7,0,3,1.7,3,3.8V54v11.8c0,2.1-1.4,3.8-3,3.8h-4.5c-1.7,0-3-1.7-3-3.8V54V42.2
			C198.7,40.1,200.1,38.4,201.7,38.4z"/>
		<g>
			<path class="st30" d="M93.2,54.1c0,0.4-0.3,0.7-0.7,0.7h-3.6c-0.4,0-0.7-0.3-0.7-0.7l0,0c0-0.4,0.3-0.7,0.7-0.7h3.6
				C92.9,53.3,93.2,53.7,93.2,54.1L93.2,54.1z"/>
			
				<linearGradient id="SVGID_15_" gradientUnits="userSpaceOnUse" x1="89.959" y1="72.3931" x2="88.503" y2="72.9691" gradientTransform="matrix(1 0 0 -1 0 126)">
				<stop  offset="1.271190e-02" style="stop-color:#F58020"/>
				<stop  offset="8.189515e-02" style="stop-color:#F5841F"/>
				<stop  offset="0.1722" style="stop-color:#F78F1E"/>
				<stop  offset="0.2742" style="stop-color:#F9A21B"/>
				<stop  offset="0.384" style="stop-color:#FDBD12"/>
				<stop  offset="0.4407" style="stop-color:#FFCD05"/>
				<stop  offset="0.6934" style="stop-color:#FBB017"/>
				<stop  offset="1" style="stop-color:#F6891F"/>
			</linearGradient>
			<path class="st31" d="M93.2,53.9c0,0.4-0.3,0.7-0.7,0.7h-3.6c-0.4,0-0.7-0.3-0.7-0.7l0,0c0-0.4,0.3-0.7,0.7-0.7h3.6
				C92.9,53.2,93.2,53.5,93.2,53.9L93.2,53.9z"/>
		</g>
		<g>
			<rect x="49.1" y="74.8" class="st10" width="5.8" height="1.5"/>
			<rect x="49.1" y="74.8" class="st27" width="1.4" height="1.5"/>
		</g>
		<g>
			<g>
				<path class="st32" d="M123.4,58.9c-1.9,0-3.3-0.9-3.3-2s1.5-2,3.3-2c1.9,0,3.3,0.9,3.3,2C126.7,58,125.2,58.9,123.4,58.9z
					 M123.4,55.5c-1.5,0-2.7,0.6-2.7,1.4s1.2,1.4,2.7,1.4s2.7-0.6,2.7-1.4S124.9,55.5,123.4,55.5z"/>
			</g>
			<g>
				
					<linearGradient id="SVGID_16_" gradientUnits="userSpaceOnUse" x1="123.4" y1="71.1645" x2="123.4" y2="66.8692" gradientTransform="matrix(1 0 0 -1 0 126)">
					<stop  offset="0" style="stop-color:#A9A8A8"/>
					<stop  offset="0.1251" style="stop-color:#ABAAAA"/>
					<stop  offset="0.1721" style="stop-color:#B1AFAF"/>
					<stop  offset="0.206" style="stop-color:#BBB9B9"/>
					<stop  offset="0.2336" style="stop-color:#C9C8C8"/>
					<stop  offset="0.257" style="stop-color:#DDDDDD"/>
					<stop  offset="0.2669" style="stop-color:#E9E8E9"/>
					<stop  offset="0.5381" style="stop-color:#F3F3F3"/>
					<stop  offset="0.6992" style="stop-color:#E0E0DF"/>
					<stop  offset="0.766" style="stop-color:#BDBBBB"/>
					<stop  offset="0.8592" style="stop-color:#999797"/>
					<stop  offset="0.9334" style="stop-color:#858585"/>
					<stop  offset="0.9788" style="stop-color:#7E7E7E"/>
				</linearGradient>
				<path class="st33" d="M126.4,56.9c0,0.9-1.3,1.7-3,1.7s-3-0.8-3-1.7s1.4-1.7,3-1.7S126.4,55.9,126.4,56.9z"/>
				<g>
					
						<linearGradient id="SVGID_17_" gradientUnits="userSpaceOnUse" x1="142.3786" y1="40.9977" x2="142.3786" y2="39.4499" gradientTransform="matrix(1 -3.500000e-03 -3.500000e-03 -1 -18.942 97.4166)">
						<stop  offset="0" style="stop-color:#989898"/>
						<stop  offset="0.2585" style="stop-color:#EBEBEB"/>
						<stop  offset="0.6907" style="stop-color:#5D5D5D"/>
					</linearGradient>
					<path class="st34" d="M127.6,56.9c0,0.3-0.3,0.6-0.6,0.6h-7.5c-0.3,0-0.6-0.3-0.6-0.6l0,0c0-0.3,0.3-0.6,0.6-0.6l7.5-0.4
						C127.4,55.9,127.9,56.1,127.6,56.9L127.6,56.9z"/>
				</g>
			</g>
		</g>
		<g>
			<g>
				<path class="st32" d="M153.5,58.9c-1.9,0-3.3-0.9-3.3-2s1.5-2,3.3-2c1.9,0,3.3,0.9,3.3,2S155.4,58.9,153.5,58.9z M153.5,55.5
					c-1.5,0-2.7,0.6-2.7,1.4s1.2,1.4,2.7,1.4s2.7-0.6,2.7-1.4S155,55.5,153.5,55.5z"/>
			</g>
			<g>
				
					<linearGradient id="SVGID_18_" gradientUnits="userSpaceOnUse" x1="153.5" y1="71.1645" x2="153.5" y2="66.8692" gradientTransform="matrix(1 0 0 -1 0 126)">
					<stop  offset="0" style="stop-color:#A9A8A8"/>
					<stop  offset="0.1251" style="stop-color:#ABAAAA"/>
					<stop  offset="0.1721" style="stop-color:#B1AFAF"/>
					<stop  offset="0.206" style="stop-color:#BBB9B9"/>
					<stop  offset="0.2336" style="stop-color:#C9C8C8"/>
					<stop  offset="0.257" style="stop-color:#DDDDDD"/>
					<stop  offset="0.2669" style="stop-color:#E9E8E9"/>
					<stop  offset="0.5381" style="stop-color:#F3F3F3"/>
					<stop  offset="0.6992" style="stop-color:#E0E0DF"/>
					<stop  offset="0.766" style="stop-color:#BDBBBB"/>
					<stop  offset="0.8592" style="stop-color:#999797"/>
					<stop  offset="0.9334" style="stop-color:#858585"/>
					<stop  offset="0.9788" style="stop-color:#7E7E7E"/>
				</linearGradient>
				<path class="st35" d="M156.5,56.9c0,0.9-1.3,1.7-3,1.7s-3-0.8-3-1.7s1.3-1.7,3-1.7S156.5,55.9,156.5,56.9z"/>
				<g>
					
						<linearGradient id="SVGID_19_" gradientUnits="userSpaceOnUse" x1="172.4782" y1="40.8923" x2="172.4782" y2="39.3445" gradientTransform="matrix(1 -3.500000e-03 -3.500000e-03 -1 -18.942 97.4166)">
						<stop  offset="0" style="stop-color:#989898"/>
						<stop  offset="0.2585" style="stop-color:#EBEBEB"/>
						<stop  offset="0.6907" style="stop-color:#5D5D5D"/>
					</linearGradient>
					<path class="st36" d="M157.7,56.9c0,0.3-0.3,0.6-0.6,0.6h-7.5c-0.3,0-0.6-0.3-0.6-0.6l0,0c0-0.3,0.3-0.6,0.6-0.6l7.5-0.4
						C157.5,55.9,158,56.1,157.7,56.9L157.7,56.9z"/>
				</g>
			</g>
		</g>
		<g>
			
				<image style="overflow:visible;enable-background:new    ;" width="50" height="25" xlink:href="86AE5D55.png"  transform="matrix(0.2112 0 0 0.2112 178.447 52.248)">
			</image>
		</g>
		<g>
			<polygon class="st37" points="118.8,31.4 109.5,39.1 134.6,37.3 135.6,31.4 			"/>
			<polygon class="st0" points="100.7,46.3 133.2,46.3 134.6,37.3 109.5,39.1 			"/>
			<polygon class="st0" points="137.8,46.3 162.2,46.3 164,35.3 139.1,37 			"/>
			<polygon class="st37" points="139.9,31.4 139.1,37 164,35.3 164.6,31.4 			"/>
			<path class="st37" d="M178.8,31.4h-10.5l-0.5,3.6l13.8-1C180.7,33.1,179.8,32.2,178.8,31.4z"/>
			<path class="st0" d="M181.7,34.1l-13.8,1l-1.5,11.2h24C190.7,43.8,186.2,38.5,181.7,34.1z"/>
		</g>
		<g>
			
				<linearGradient id="SVGID_20_" gradientUnits="userSpaceOnUse" x1="102.05" y1="81.8663" x2="102.05" y2="79.0918" gradientTransform="matrix(1 0 0 -1 0 126)">
				<stop  offset="0" style="stop-color:#605B5F"/>
				<stop  offset="0.2754" style="stop-color:#010101"/>
				<stop  offset="0.7541" style="stop-color:#010101"/>
				<stop  offset="0.8093" style="stop-color:#010101"/>
			</linearGradient>
			<polygon class="st38" points="102.1,44.1 100.4,45.9 101.5,46.9 103.7,46.2 			"/>
			
				<linearGradient id="SVGID_21_" gradientUnits="userSpaceOnUse" x1="-84.7258" y1="2275.8052" x2="-78.9047" y2="2275.8052" gradientTransform="matrix(1.1414 -0.1548 0.1108 0.8167 -54.2474 -1828.2236)">
				<stop  offset="0.2119" style="stop-color:#014C78"/>
				<stop  offset="0.4025" style="stop-color:#1F7FC3"/>
				<stop  offset="0.6071" style="stop-color:#2380C3"/>
				<stop  offset="0.7052" style="stop-color:#2E85C6"/>
				<stop  offset="0.7804" style="stop-color:#3E8DCC"/>
				<stop  offset="0.8256" style="stop-color:#4B95D1"/>
				<stop  offset="0.9915" style="stop-color:#2280C3"/>
			</linearGradient>
			<path class="st39" d="M108.2,45.2l-0.7-5.2c-0.1-0.9-1.3-1.4-2.5-1c-2.6,1-3.6,6.4-3.5,6.7c0.7,1.3,2.5,1.3,4.5,1.2
				C107.4,47,108.3,46.2,108.2,45.2z"/>
			
				<radialGradient id="SVGID_22_" cx="-68.3614" cy="3966.686" r="3.4658" gradientTransform="matrix(1.1414 -0.1548 0.1508 1.1116 -414.3937 -4377.001)" gradientUnits="userSpaceOnUse">
				<stop  offset="0" style="stop-color:#FFFFFF"/>
				<stop  offset="0.225" style="stop-color:#F9F8F8"/>
				<stop  offset="0.4449" style="stop-color:#ECEBEA"/>
				<stop  offset="0.6628" style="stop-color:#D9D8D8"/>
				<stop  offset="0.8782" style="stop-color:#C1C0C0"/>
				<stop  offset="1" style="stop-color:#B0B1B1"/>
			</radialGradient>
			<path class="st40" d="M108.2,45.2l-0.7-5.2c-0.1-0.9-1.3-1.4-2.5-1c-2.6,1-3.6,6.4-3.5,6.7c0.7,1.3,2.5,1.3,4.5,1.2
				C107.4,47,108.3,46.2,108.2,45.2z"/>
			
				<linearGradient id="SVGID_23_" gradientUnits="userSpaceOnUse" x1="103.4787" y1="86.2083" x2="104.4558" y2="83.3191" gradientTransform="matrix(1 0 0 -1 0 126)">
				<stop  offset="0" style="stop-color:#717171"/>
				<stop  offset="0.339" style="stop-color:#959494"/>
				<stop  offset="0.372" style="stop-color:#898888"/>
				<stop  offset="0.5012" style="stop-color:#5F5F5E"/>
				<stop  offset="0.625" style="stop-color:#404140"/>
				<stop  offset="0.7401" style="stop-color:#2A2A2A"/>
				<stop  offset="0.8444" style="stop-color:#171818"/>
				<stop  offset="0.9345" style="stop-color:#080808"/>
				<stop  offset="1" style="stop-color:#010101"/>
			</linearGradient>
			<path class="st41" d="M108.2,45.2l-0.7-5.2c-0.1-0.9-1.3-1.4-2.5-1c-2.6,1-3.6,6.4-3.5,6.7c0.7,1.3,2.5,1.3,4.5,1.2
				C107.4,47,108.3,46.2,108.2,45.2z"/>
		</g>
	</g>
</g>
</svg>
