<?xml version="1.0" encoding="utf-8"?>
<!-- Generator: Adobe Illustrator 22.0.1, SVG Export Plug-In . SVG Version: 6.00 Build 0)  -->
<svg version="1.1" id="Layer_1" xmlns="http://www.w3.org/2000/svg" xmlns:xlink="http://www.w3.org/1999/xlink" x="0px" y="0px"
	 viewBox="0 0 250 125" style="enable-background:new 0 0 250 125;" xml:space="preserve">
<style type="text/css">
	.st0{fill:#010101;}
	.st1{fill:#818285;}
	.st2{fill:#939598;}
	.st3{fill:#FFFFFF;}
	.st4{fill:#F15B2B;}
	.st5{fill:#424143;}
	.st6{fill:#BDBEC0;}
	.st7{fill:#D2D3D4;}
	.st8{opacity:0.5;fill:#FFFFFF;}
	.st9{fill:#E6E7E7;}
	.st10{fill:#EC2227;}
	.st11{fill:#BE202E;}
</style>
<g>
	<g>
		<path class="st0" d="M87.9,73.4c-6.6,0-12,5.4-12,12c0,6.6,5.4,12,12,12c6.6,0,12-5.4,12-12C100,78.8,94.6,73.4,87.9,73.4z
			 M87.9,93.4c-4.4,0-8-3.6-8-8s3.6-8,8-8c4.4,0,8,3.6,8,8S92.4,93.4,87.9,93.4z"/>
		<g>
			<path class="st1" d="M87.9,77.2c-4.6,0-8.3,3.7-8.3,8.3c0,4.6,3.7,8.3,8.3,8.3c4.6,0,8.3-3.7,8.3-8.3
				C96.2,80.9,92.5,77.2,87.9,77.2z M87.9,92.9c-4.1,0-7.5-3.3-7.5-7.5c0-4.1,3.3-7.5,7.5-7.5c4.1,0,7.5,3.3,7.5,7.5
				C95.4,89.6,92.1,92.9,87.9,92.9z"/>
		</g>
	</g>
	<g>
		<circle class="st1" cx="87.9" cy="85.5" r="4.2"/>
		<circle class="st0" cx="87.9" cy="85.5" r="3.4"/>
	</g>
	<g>
		<g>
			<path class="st0" d="M162.7,73.4c-6.6,0-12,5.4-12,12c0,6.6,5.4,12,12,12c6.6,0,12-5.4,12-12C174.8,78.8,169.4,73.4,162.7,73.4z
				 M162.7,93.4c-4.4,0-8-3.6-8-8s3.6-8,8-8c4.4,0,8,3.6,8,8S167.1,93.4,162.7,93.4z"/>
			<g>
				<path class="st1" d="M162.7,77.2c-4.6,0-8.3,3.7-8.3,8.3c0,4.6,3.7,8.3,8.3,8.3c4.6,0,8.3-3.7,8.3-8.3
					C171,80.9,167.3,77.2,162.7,77.2z M162.7,92.9c-4.1,0-7.5-3.3-7.5-7.5c0-4.1,3.3-7.5,7.5-7.5c4.1,0,7.5,3.3,7.5,7.5
					C170.2,89.6,166.9,92.9,162.7,92.9z"/>
			</g>
		</g>
		<g>
			<circle class="st1" cx="162.7" cy="85.5" r="4.2"/>
			<circle class="st0" cx="162.7" cy="85.5" r="3.4"/>
		</g>
	</g>
	<path class="st2" d="M87.9,86.7c-0.2,0-0.4-0.1-0.6-0.2c-0.6-0.4-0.8-1.1-0.4-1.7l24.6-39.6c0.4-0.6,1.1-0.8,1.7-0.4
		c0.6,0.4,0.8,1.1,0.4,1.7L89,86.1C88.8,86.5,88.4,86.7,87.9,86.7z"/>
	<path class="st2" d="M113.2,44.8c-0.6-0.4-1.3-0.2-1.7,0.4L88.2,82.7c0.6,1.2,2.2,1.1,2.2,1.1l23.1-37.3
		C113.9,45.9,113.7,45.1,113.2,44.8z"/>
	<g>
		<path class="st0" d="M117.5,30.9h-0.4c-1.7,0-3.2,1.4-3.2,3.2l0,0c0,0.6-0.2,1.1-0.6,1.5l-4.3,4.3l0.4,0.4l4.3-4.3
			c0.4-0.4,0.9-0.6,1.5-0.6h1.6c1.4,0,2.5-1.1,2.5-2.5l0,0C119.4,31.7,118.5,30.9,117.5,30.9z"/>
		<path class="st3" d="M114.7,33.6c0-0.6,0.2-1.3,0.7-1.8c0.2-0.2,0.5-0.4,0.9-0.5c0.3-0.1,0.7-0.1,1-0.1c-0.6,0.1-1.2,0.4-1.6,0.8
			C115.3,32.5,115,33,114.7,33.6z"/>
	</g>
	<path class="st4" d="M81.8,73.1c1.8,5.6,7,9.7,13.2,9.7c2.2,0,4.3-0.5,6.2-1.5c-1.8-5.6-7-9.7-13.2-9.7
		C85.7,71.7,83.6,72.2,81.8,73.1z"/>
	<path class="st2" d="M87.9,71.7c-0.4,0-0.9,0-1.3,0.1c4.3,2.6,8,6.4,10.3,10.9c1.5-0.2,2.8-0.7,4.1-1.3
		C99.4,75.7,94.1,71.7,87.9,71.7z"/>
	<path class="st0" d="M162.7,71.8c6.3,0,11.6,4.3,13.2,10.1c0.3,1,1.1,1.6,2.1,1.6l0,0c-0.5-9.3-8.2-16.7-17.7-16.7
		c-9.5,0-17.3,7.4-17.7,16.7h6.6C150.1,76.9,155.8,71.8,162.7,71.8z"/>
	<path class="st0" d="M137,62.5C133.9,78,125.2,79,125.2,79l-9.6,1.1c-2.5,0.3-5-1.1-5.9-3.5l-1.4-3.4c-1.5-3.6-1.3-7.6,0.6-11.1
		l6.3-12c0.5-1,0.8-2,0.9-3l0,0c0.5-4.3-2.8-8-7.1-8h-1.5l1.8,7.4v1.6L97.1,60.3l8.8,25.4h27.4v-4.6h12l15.8-11.4V56L137,62.5z"/>
	<path class="st5" d="M170.7,58.4l-35.9,6.3c-1.4,0.2-2.7-0.8-2.7-2.3v0c0-3.3,2.6-6,5.9-6l14.3-0.3l12.5-2.5
		C167.9,53,170.7,55.3,170.7,58.4L170.7,58.4z"/>
	<path class="st1" d="M133.4,64c0-3.5,2.9-6.3,6.5-6.4l15.6-0.3l10-1.9c1.2-0.2,0.9-2-0.3-1.9c-0.1,0-0.2,0-0.3,0.1L152.4,56
		l-14.3,0.3c-3.3,0.1-5.9,2.8-5.9,6c0,0.9,0.5,1.7,1.3,2.1C133.4,64.3,133.4,64.1,133.4,64z"/>
	<g>
		<path class="st0" d="M165.3,81.8L165.3,81.8L165.3,81.8c-0.7-0.3-1.3-0.5-2-0.5c-1-4-4.5-6.9-8.8-6.9h-11.4
			c-1.8,0-3.2,1.4-3.2,3.2v0c0,2.3-1.9,4.2-4.2,4.2h-6.1c-0.7-0.3-1.4-0.5-2.2-0.5h-17c-0.8,0-1.5,0.2-2.2,0.5h-0.3
			c-0.5,0-0.9,0.4-0.9,0.9v0c-0.9,0.9-1.4,2.1-1.4,3.4l0,0c0,2.7,2.2,4.8,4.8,4.8h17c1,0,2-0.3,2.8-0.9h10.5
			c0.8,0.6,1.7,0.9,2.8,0.9H163c2.7,0,4.8-2.2,4.8-4.8l0,0C167.9,84.2,166.8,82.6,165.3,81.8z"/>
		<path class="st1" d="M154.4,81.4h2.7c2.8,0,8.3,0.7,8.3,1.5l0,0h-10.7c-2.2,0-3.9,1.8-3.9,3.9c0,0.1,0,0.1,0,0.2
			c-0.2-0.5-0.4-1.1-0.4-1.7v0C150.4,83.2,152.2,81.4,154.4,81.4z"/>
	</g>
	<path class="st4" d="M113.7,47.6h-5c-15.9,7.4-22.3,21.5-22.3,21.5l8.3,6.9c4.5,3.8,7.1,9.4,7.1,15.2v0c0,0,13.4,3,39.5-6.1
		c1.1-0.4,2-1.1,2.7-2.1c10.1-15.3,20.2-15.1,24-15.1c12,0,4.4-2,5.6-4.1c0.8-1.5,1.3-3.3,1.3-5.1v-0.2c0-3.3-3.8-3.5-5.8-3.1
		c-8.6,1.8-25.2,5.5-32.9,19.2c-2.1,3.7-5.6,6.3-9.7,7c-4.5,0.8-10.6,1.5-16.3,1.1c-2.1-0.2-3.8-1.6-4.4-3.6l-4.3-15.3
		c-0.5-1.7,0-3.5,1.2-4.8L113.7,47.6z"/>
	<path class="st4" d="M109.1,43.9L109.1,43.9c0-1.5,1.2-2.7,2.6-2.7l0,0c-0.7-0.9-1.5-1.7-2.5-2.3l-2.9-2l-2.6,3.3
		c-1.3,1.7-2.1,3.8-2,5.9c0,0.6,0.5,1.1,1.1,1.1h10.9c0,0,0,0,0,0c0-1.2-1-2.1-2.1-2.1h-1.3C109.7,45.1,109.1,44.6,109.1,43.9z"/>
	<path class="st6" d="M105.4,91.7L105.4,91.7c5.6,0.3,17.6-0.2,35.8-6.5c0.9-0.3,1.6-0.8,2.2-1.5c-15.6,4-27.6,5.5-36.2,6
		C106.3,89.8,105.4,90.6,105.4,91.7z"/>
	<path class="st7" d="M150.7,69.1c9.2-5.4,18.2-6.6,23.4-6.8c0.4-1.2,0.7-2.4,0.7-3.7v-0.2c0-0.2,0-0.4,0-0.6
		c-5.6,0.6-16.7,2.8-24.5,10.6C149.8,68.8,150.2,69.4,150.7,69.1z"/>
	<path class="st8" d="M86.4,69.1l0.7,0.6c2-3.1,8.5-12.3,19.4-19.2h-2.9C91.5,58.1,86.4,69.1,86.4,69.1z"/>
	<path class="st8" d="M108.8,47.6c-1.8,0.9-3.6,1.8-5.2,2.8h2.9c1.6-1,3.2-1.9,5-2.8H108.8z"/>
	<path class="st8" d="M103.8,40.2c-1.3,1.7-2.1,3.8-2,5.9c0,0.4,0.2,0.7,0.5,0.9c0.1-2.4,1.1-4.7,2.8-6.6l2.5-2.8l-1.1-0.7
		L103.8,40.2z"/>
	<g>
		<g>
			<path class="st1" d="M118.2,44.6h-7.1c-0.6,0-1.1-0.5-1.1-1.1l0,0c0-0.6,0.5-1.1,1.1-1.1h7.1c0.6,0,1.1,0.5,1.1,1.1l0,0
				C119.4,44.1,118.8,44.6,118.2,44.6z"/>
			<path class="st5" d="M110,43.4C110,43.4,110,43.4,110,43.4c0,0.6,0.5,1.2,1.1,1.2h7.1c0.6,0,1.1-0.5,1.1-1.1c0,0,0,0,0,0H110z"/>
		</g>
		<circle class="st5" cx="118.2" cy="43.4" r="1.1"/>
		<circle class="st1" cx="118.2" cy="43.4" r="0.7"/>
	</g>
	<path class="st9" d="M102.5,42.3c-0.5,1.1-0.7,2.2-0.8,3.4l3.3-1.3c0.9-0.3,1.5-1.2,1.5-2.1H102.5z"/>
	<path class="st1" d="M102.5,42.3c-0.1,0.1-0.1,0.2-0.1,0.4h3.5c0,0.6-0.2,1.2-0.6,1.7c0.7-0.4,1.2-1.2,1.2-2H102.5z"/>
	<path class="st8" d="M136.1,74.6c-2.1,3.7-5.6,6.3-9.8,7c-4.5,0.8-10.6,1.5-16.3,1.1c-0.8-0.1-1.6-0.3-2.3-0.8
		c3,2.8,16.4,2.4,21.5,1.5c4.6-0.8,8.5-3.7,10.8-7.7c7.4-13.1,22-17.9,32-20.3c-1.1-0.2-2.2-0.2-3.1,0
		C160.4,57.2,143.8,60.9,136.1,74.6z"/>
	<path class="st8" d="M81.8,73.1c0.1,0.4,0.3,0.7,0.4,1.1c0.8-0.4,1.7-0.6,2.6-0.8c0.8-0.2,1.3-0.8,1.3-1.6l0,0
		C84.6,72,83.1,72.4,81.8,73.1z"/>
	<path class="st8" d="M156.8,68.2c7.2-2.7,14.7-2.9,17-2.9c-0.3-0.4-0.6-0.9-0.4-1.4C170.7,64,161.8,64.7,156.8,68.2z"/>
	<path class="st10" d="M174.7,57.9c-0.6,0.1-1.2,0.1-1.9,0.2c-1.7,0.2-2.9,1.7-2.9,3.4v0c0,0.6,0.5,1.1,1.1,1
		c1.1-0.1,2.2-0.2,3.1-0.2c0.4-1.2,0.7-2.4,0.7-3.7v-0.2C174.8,58.3,174.7,58.1,174.7,57.9z"/>
	<path class="st11" d="M173.3,59.3c0.5-0.1,1-0.1,1.4-0.2c0-0.1,0-0.3,0-0.4v-0.2c0-0.2,0-0.4,0-0.6c-0.6,0.1-1.2,0.1-1.9,0.2
		c-1.7,0.2-2.9,1.7-2.9,3.4l0,0c0,0.3,0.2,0.6,0.4,0.8C170.4,60.8,171.7,59.5,173.3,59.3z"/>
</g>
</svg>
